C:\Users\israe\Dropbox\PhDWork\ExperimentalData\subject14\055\P14S055W04_filtered35.mot
nRows=15
nColumns=28

name C:\Users\israe\Dropbox\PhDWork\ExperimentalData\subject14\055\P14S055W04_filtered35.mot
datacolumns 28
datarows 15
range 0.0000000000 0.0140000000
endheader
time	ground_force_1_vx	ground_force_1_vy	ground_force_1_vz	ground_force_1_px	ground_force_1_py	ground_force_1_pz	ground_moment_1_mx	ground_moment_1_my	ground_moment_1_mz	ground_force_2_vx	ground_force_2_vy	ground_force_2_vz	ground_force_2_px	ground_force_2_py	ground_force_2_pz	ground_moment_2_mx	ground_moment_2_my	ground_moment_2_mz	ground_force_3_vx	ground_force_3_vy	ground_force_3_vz	ground_force_3_px	ground_force_3_py	ground_force_3_pz	ground_moment_3_mx	ground_moment_3_my	ground_moment_3_mz
        0.0000000000	      -16.2979099281	      211.9466167789	       29.5158987929	        0.1988394955	        0.0000558755	       -0.3004071329	       60.7262798512	        2.0146293445	       23.0173674405	        0.0000000000	        0.0000000000	        0.0000000000	        0.2029003516	       -0.0000795827	        0.4543649445	        0.0000000000	       -0.0000000000	        0.0000000000	       -0.0000000000	        0.0000000000	        0.0000000000	        0.2076431971	        0.0000770316	        1.3583900146	       -0.0000000000	       -0.0000000000	       -0.0000000000	
        0.0010000000	      -16.3003433868	      212.8996422418	       29.4963801271	        0.1988394955	        0.0000558755	       -0.3004071329	       60.9838249225	        2.0380021718	       23.1157692103	        0.0000000000	        0.0000000000	        0.0000000000	        0.2029003516	       -0.0000795827	        0.4543649445	        0.0000000000	       -0.0000000000	        0.0000000000	       -0.0000000000	        0.0000000000	       -0.0000000000	        0.2076431971	        0.0000770316	        1.3583900146	       -0.0000000000	       -0.0000000000	       -0.0000000000	
        0.0020000000	      -16.3064294413	      213.8854752325	       29.4785390106	        0.1988394955	        0.0000558755	       -0.3004071329	       61.2493756311	        2.0623730277	       23.2181785712	        0.0000000000	        0.0000000000	        0.0000000000	        0.2029003516	       -0.0000795827	        0.4543649445	        0.0000000000	       -0.0000000000	        0.0000000000	       -0.0000000000	        0.0000000000	       -0.0000000000	        0.2076431971	        0.0000770316	        1.3583900146	       -0.0000000000	       -0.0000000000	       -0.0000000000	
        0.0030000000	      -16.3160545766	      214.8973586467	       29.4617824291	        0.1988394955	        0.0000558755	       -0.3004071329	       61.5201659794	        2.0874373486	       23.3240425292	        0.0000000000	        0.0000000000	        0.0000000000	        0.2029003516	       -0.0000795827	        0.4543649445	        0.0000000000	       -0.0000000000	        0.0000000000	       -0.0000000000	        0.0000000000	       -0.0000000000	        0.2076431971	        0.0000770316	        1.3583900146	       -0.0000000000	       -0.0000000000	       -0.0000000000	
        0.0040000000	      -16.3289173208	      215.9277983605	       29.4457730527	        0.1988394955	        0.0000558755	       -0.3004071329	       61.7942349750	        2.1131180302	       23.4330243925	        0.0000000000	        0.0000000000	        0.0000000000	        0.2029003516	       -0.0000795827	        0.4543649445	        0.0000000000	       -0.0000000000	        0.0000000000	       -0.0000000000	        0.0000000000	       -0.0000000000	        0.2076431971	        0.0000770316	        1.3583900146	       -0.0000000000	       -0.0000000000	       -0.0000000000	
        0.0050000000	      -16.3453710751	      216.9691207688	       29.4299846833	        0.1988394955	        0.0000558755	       -0.3004071329	       62.0701715022	        2.1395425210	       23.5447019689	        0.0000000000	        0.0000000000	        0.0000000000	        0.2029003516	       -0.0000795827	        0.4543649445	        0.0000000000	       -0.0000000000	        0.0000000000	       -0.0000000000	        0.0000000000	       -0.0000000000	        0.2076431971	        0.0000770316	        1.3583900146	       -0.0000000000	       -0.0000000000	       -0.0000000000	
        0.0060000000	      -16.3668643492	      218.0160975411	       29.4135724088	        0.1988394955	        0.0000558755	       -0.3004071329	       62.3469028970	        2.1669822107	       23.6583617272	        0.0000000000	        0.0000000000	        0.0000000000	        0.2029003516	       -0.0000795827	        0.4543649445	        0.0000000000	       -0.0000000000	        0.0000000000	       -0.0000000000	        0.0000000000	       -0.0000000000	        0.2076431971	        0.0000770316	        1.3583900146	       -0.0000000000	       -0.0000000000	       -0.0000000000	
        0.0070000000	      -16.3953067653	      219.0672222952	       29.3952050208	        0.1988394955	        0.0000558755	       -0.3004071329	       62.6236166554	        2.1957536505	       23.7730943787	        0.0000000000	        0.0000000000	       -0.0000000000	        0.2029003516	       -0.0000795827	        0.4543649445	        0.0000000000	       -0.0000000000	       -0.0000000000	       -0.0000000000	        0.0000000000	       -0.0000000000	        0.2076431971	        0.0000770316	        1.3583900146	       -0.0000000000	       -0.0000000000	       -0.0000000000	
        0.0080000000	      -16.4318606471	      220.1226195761	       29.3730929783	        0.1988394955	        0.0000558755	       -0.3004071329	       62.8997734368	        2.2260735411	       23.8880945711	       -0.0000000000	        0.0000000000	       -0.0000000000	        0.2029003516	       -0.0000795827	        0.4543649445	       -0.0000000000	       -0.0000000000	       -0.0000000000	       -0.0000000000	        0.0000000000	       -0.0000000000	        0.2076431971	        0.0000770316	        1.3583900146	       -0.0000000000	       -0.0000000000	       -0.0000000000	
        0.0090000000	      -16.4761997088	      221.1811576990	       29.3456418486	        0.1988394955	        0.0000558755	       -0.3004071329	       63.1751351445	        2.2578995814	       24.0029286288	       -0.0000000000	        0.0000000000	       -0.0000000000	        0.2029003516	       -0.0000795827	        0.4543649445	       -0.0000000000	       -0.0000000000	       -0.0000000000	       -0.0000000000	        0.0000000000	       -0.0000000000	        0.2076431971	        0.0000770316	        1.3583900146	       -0.0000000000	       -0.0000000000	       -0.0000000000	
        0.0100000000	      -16.5268074387	      222.2389463381	       29.3121322737	        0.1988394955	        0.0000558755	       -0.3004071329	       63.4497782991	        2.2908571698	       24.1175968836	       -0.0000000000	        0.0000000000	       -0.0000000000	        0.2029003516	       -0.0000795827	        0.4543649445	       -0.0000000000	        0.0000000000	       -0.0000000000	       -0.0000000000	        0.0000000000	       -0.0000000000	        0.2076431971	        0.0000770316	        1.3583900146	       -0.0000000000	       -0.0000000000	       -0.0000000000	
        0.0110000000	      -16.5818741585	      223.2892299154	       29.2728214066	        0.1988394955	        0.0000558755	       -0.3004071329	       63.7242055395	        2.3243533399	       24.2324176893	       -0.0000000000	        0.0000000000	       -0.0000000000	        0.2029003516	       -0.0000795827	        0.4543649445	       -0.0000000000	        0.0000000000	       -0.0000000000	       -0.0000000000	        0.0000000000	       -0.0000000000	        0.2076431971	        0.0000770316	        1.3583900146	       -0.0000000000	       -0.0000000000	       -0.0000000000	
        0.0120000000	      -16.6399077552	      224.3240838525	       29.2286253774	        0.1988394955	        0.0000558755	       -0.3004071329	       63.9993639915	        2.3577720925	       24.3478105536	       -0.0000000000	        0.0000000000	       -0.0000000000	        0.2029003516	       -0.0000795827	        0.4543649445	       -0.0000000000	        0.0000000000	       -0.0000000000	       -0.0000000000	        0.0000000000	       -0.0000000000	        0.2076431971	        0.0000770316	        1.3583900146	       -0.0000000000	       -0.0000000000	       -0.0000000000	
        0.0130000000	      -16.6998100499	      225.3373087784	       29.1807341480	        0.1988394955	        0.0000558755	       -0.3004071329	       64.2764088142	        2.3905992698	       24.4640414191	       -0.0000000000	        0.0000000000	       -0.0000000000	        0.2029003516	       -0.0000795827	        0.4543649445	       -0.0000000000	        0.0000000000	       -0.0000000000	       -0.0000000000	        0.0000000000	       -0.0000000000	        0.2076431971	        0.0000770316	        1.3583900146	       -0.0000000000	       -0.0000000000	       -0.0000000000	
        0.0140000000	      -16.7607421474	      226.3266420256	       29.1305098355	        0.1988394955	        0.0000558755	       -0.3004071329	       64.5565106371	        2.4224804262	       24.5811423118	       -0.0000000000	        0.0000000000	       -0.0000000000	        0.2029003516	       -0.0000795827	        0.4543649445	       -0.0000000000	        0.0000000000	       -0.0000000000	       -0.0000000000	        0.0000000000	       -0.0000000000	        0.2076431971	        0.0000770316	        1.3583900146	       -0.0000000000	       -0.0000000000	       -0.0000000000	
